#N canvas 246 23 1042 851 10;
#X declare -lib zexy;
#X obj 504 -53 timer;
#X obj 504 -82 t b b;
#X floatatom 504 14 5 0 0 0 - - -;
#X obj 289 -266 netreceive 5555 1;
#X obj 504 -15 markex/average 200;
#X floatatom 516 -145 5 0 0 0 - - -;
#X obj 516 -225 moses 1024;
#X obj 516 -185 mapping/median 5;
#X floatatom 97 385 5 0 0 0 - - -;
#X obj 97 362 comport 9600;
#X msg 221 299 close;
#X obj 309 246 bng 15 250 50 0 empty empty empty 17 7 0 10 -262144
-1 -1;
#X obj 393 247 bng 15 250 50 0 empty empty empty 17 7 0 10 -262144
-1 -1;
#X obj 487 247 bng 15 250 50 0 empty empty empty 17 7 0 10 -262144
-1 -1;
#X msg 393 298 2;
#X msg 487 298 3;
#X msg 308 298 1;
#X text 416 245 Forward;
#X text 508 246 Backward;
#X obj 98 144 tgl 15 0 empty empty empty 17 7 0 10 -262144 -1 -1 0
1;
#X obj 98 208 metro 750;
#X floatatom 149 143 5 30 130 0 - - -;
#X obj 149 175 expr 60000 / $f1;
#X text 187 144 heartbeat (BPM);
#X obj 289 -1 change;
#X obj 289 34 sel 1;
#X msg 162 299 open 0;
#X obj 289 -33 < 2;
#X obj 634 -249 ./ppd_scope 5 1023;
#X obj 633 -90 ppd_scope 2 200;
#X text 330 245 Pulse;
#X msg 98 299 devices;
#X text 138 386 the arduino returns the value which it recives (debugging)
;
#X text 170 -266 recives raw data;
#X text 7 -33 detects heart beat (connect sel with Pulse);
#X text -12 119 metronom (testing) (disconnect metro and Pulse);
#X text -11 274 first open connection to usb device (arduino);
#X connect 0 0 4 0;
#X connect 0 0 29 0;
#X connect 1 0 0 0;
#X connect 1 1 0 1;
#X connect 3 0 1 0;
#X connect 3 0 6 0;
#X connect 3 0 27 0;
#X connect 3 0 28 0;
#X connect 4 0 2 0;
#X connect 6 0 7 0;
#X connect 7 0 5 0;
#X connect 9 0 8 0;
#X connect 10 0 9 0;
#X connect 11 0 16 0;
#X connect 12 0 14 0;
#X connect 13 0 15 0;
#X connect 14 0 9 0;
#X connect 15 0 9 0;
#X connect 16 0 9 0;
#X connect 19 0 20 0;
#X connect 20 0 11 0;
#X connect 21 0 22 0;
#X connect 22 0 20 1;
#X connect 24 0 25 0;
#X connect 26 0 9 0;
#X connect 27 0 24 0;
#X connect 31 0 9 0;
