#N canvas 21 90 924 722 10;
#X obj 41 -22 inlet;
#N canvas 0 0 450 300 (subpatch) 0;
#X array \$0-graph 256 float 0;
#X coords 0 1 255 -1 256 140 1 0 0;
#X restore 101 101 graph;
#X obj 144 322 table \$0-helper 255;
#X obj 425 518 tabread \$0-helper;
#X obj 503 316 until;
#X obj 481 399 + 1;
#X obj 507 400 f;
#X obj 534 400 mod 256;
#X obj 507 420 - 1;
#X obj 134 480 + 1;
#X obj 199 480 mod 256;
#X obj 159 539 - 1;
#X floatatom 324 224 5 0 0 0 y_scale - -;
#X obj 53 184 / 1;
#X floatatom 237 224 5 0 0 0 refresh_every - -;
#X obj 445 167 s \$0-helpsize;
#X obj 211 436 r \$0-helpsize;
#X obj 209 458 t f f;
#X obj 196 593 s \$0-arraycopy;
#X obj 474 237 r \$0-arraycopy;
#X obj 519 268 r \$0-helpsize;
#X obj 435 540 tabwrite \$0-graph;
#X obj 507 443 t f f;
#X obj 55 217 t f b;
#X obj 159 512 t f f;
#X obj 240 504 r \$0-helpsize;
#X obj 193 566 sel 1;
#X obj 54 562 tabwrite \$0-helper;
#X obj 423 495 mod 256;
#X obj 196 540 >= 256;
#X obj 356 431 + 1;
#X obj 382 432 f;
#X obj 409 432 mod 256;
#X obj 383 465 - 1;
#X obj 360 397 r \$0-helpsize;
#X obj 374 208 s \$0-reset;
#X obj 162 384 r \$0-reset;
#X obj 570 355 r \$0-reset;
#X obj 296 374 r \$0-reset;
#X msg 374 188 0;
#X floatatom 197 408 5 0 0 0 - - -;
#X obj 373 167 b;
#X obj 398 139 t f f;
#X obj 512 354 t b b;
#X obj 310 12 loadbang;
#X obj 310 50 route 0;
#X obj 159 480 f;
#X obj 503 294 f 256;
#X obj 310 69 1;
#X obj 310 31 f \$2;
#X obj 257 -100 loadbang;
#X obj 257 -62 route 0;
#X obj 223 -41 256;
#X obj 257 -81 f \$1;
#X obj 94 63 b;
#X obj 650 12 r ppd_scope;
#X obj 650 37 route enable;
#X obj 93 6 spigot 1;
#X obj 650 62 s \$0-enable;
#X obj 125 -26 r \$0-enable;
#X obj 53 29 route float reset enable;
#X obj 145 54 s \$0-enable;
#X obj 103 103 tgl 15 0 empty empty empty 17 7 0 10 -262144 -1 -1 0
1;
#X msg 566 81 set \$1;
#X connect 0 0 57 0;
#X connect 3 0 21 0;
#X connect 4 0 43 0;
#X connect 5 0 6 1;
#X connect 6 0 7 0;
#X connect 6 0 8 0;
#X connect 7 0 5 0;
#X connect 8 0 22 0;
#X connect 9 0 46 1;
#X connect 10 0 9 0;
#X connect 11 0 27 1;
#X connect 12 0 13 1;
#X connect 13 0 23 0;
#X connect 14 0 42 0;
#X connect 16 0 17 0;
#X connect 17 0 46 1;
#X connect 17 1 10 1;
#X connect 19 0 47 0;
#X connect 20 0 47 1;
#X connect 22 1 21 1;
#X connect 23 0 27 0;
#X connect 23 1 46 0;
#X connect 24 0 11 0;
#X connect 24 1 29 0;
#X connect 25 0 29 1;
#X connect 26 0 18 0;
#X connect 28 0 3 0;
#X connect 29 0 26 0;
#X connect 30 0 31 1;
#X connect 31 0 32 0;
#X connect 31 0 33 0;
#X connect 32 0 30 0;
#X connect 33 0 28 0;
#X connect 34 0 32 1;
#X connect 36 0 46 1;
#X connect 37 0 6 1;
#X connect 38 0 31 1;
#X connect 39 0 35 0;
#X connect 41 0 39 0;
#X connect 42 0 41 0;
#X connect 42 1 15 0;
#X connect 43 0 31 0;
#X connect 43 1 6 0;
#X connect 44 0 49 0;
#X connect 45 0 48 0;
#X connect 45 1 12 0;
#X connect 46 0 10 0;
#X connect 46 0 24 0;
#X connect 47 0 4 0;
#X connect 48 0 12 0;
#X connect 49 0 45 0;
#X connect 50 0 53 0;
#X connect 51 0 52 0;
#X connect 51 1 14 0;
#X connect 52 0 14 0;
#X connect 53 0 51 0;
#X connect 54 0 41 0;
#X connect 55 0 56 0;
#X connect 56 0 58 0;
#X connect 56 0 63 0;
#X connect 57 0 60 0;
#X connect 59 0 57 1;
#X connect 60 0 13 0;
#X connect 60 1 54 0;
#X connect 60 2 61 0;
#X connect 62 0 61 0;
#X connect 63 0 62 0;
#X coords 0 -1 1 1 258 142 1 100 100;
